<svg width="16" height="14" viewBox="0 0 16 14" fill="none" xmlns="http://www.w3.org/2000/svg">
<path d="M13.6529 0.631278C14.0002 0.0276817 14.7694 -0.179125 15.3709 0.169361C15.9725 0.517848 16.1786 1.28966 15.8313 1.89326L9.22835 13.3688C8.88105 13.9724 8.11185 14.1792 7.5103 13.8307C6.90875 13.4822 6.70264 12.7104 7.04995 12.1068L13.6529 0.631278Z" fill="white"/>
<path d="M8.95005 12.1067C9.29736 12.7103 9.09125 13.4822 8.4897 13.8306C7.88815 14.1791 7.11895 13.9723 6.77165 13.3687L0.16871 1.89318C-0.178595 1.28959 0.0275115 0.517771 0.629061 0.169284C1.23061 -0.179202 1.99981 0.0276049 2.34711 0.631202L8.95005 12.1067Z" fill="white"/>
</svg>
