<svg width="16" height="14" viewBox="0 0 16 14" fill="none" xmlns="http://www.w3.org/2000/svg">
<path d="M2.34712 13.3687C1.99981 13.9723 1.23061 14.1791 0.629062 13.8306C0.0275119 13.4822 -0.178594 12.7103 0.168711 12.1067L6.77165 0.6312C7.11895 0.0276037 7.88815 -0.179204 8.4897 0.169282C9.09125 0.517769 9.29736 1.28959 8.95005 1.89318L2.34712 13.3687Z" fill="white"/>
<path d="M7.04995 1.89326C6.70264 1.28966 6.90875 0.517846 7.5103 0.169359C8.11185 -0.179127 8.88105 0.0276809 9.22835 0.631278L15.8313 12.1068C16.1786 12.7104 15.9725 13.4822 15.3709 13.8307C14.7694 14.1792 14.0002 13.9724 13.6529 13.3688L7.04995 1.89326Z" fill="white"/>
</svg>
