<svg width="14" height="16" viewBox="0 0 14 16" fill="none" xmlns="http://www.w3.org/2000/svg">
<path d="M0.631278 2.34711C0.0276812 1.99981 -0.179126 1.23061 0.169361 0.62906C0.517847 0.0275101 1.28966 -0.178596 1.89326 0.168709L13.3688 6.77165C13.9724 7.11895 14.1792 7.88815 13.8307 8.4897C13.4822 9.09125 12.7104 9.29735 12.1068 8.95005L0.631278 2.34711Z" fill="white"/>
<path d="M12.1067 7.04995C12.7103 6.70264 13.4822 6.90875 13.8306 7.5103C14.1791 8.11185 13.9723 8.88105 13.3687 9.22835L1.89318 15.8313C1.28959 16.1786 0.517771 15.9725 0.169284 15.3709C-0.179202 14.7694 0.0276049 14.0002 0.631201 13.6529L12.1067 7.04995Z" fill="white"/>
</svg>
