<svg width="14" height="16" viewBox="0 0 14 16" fill="none" xmlns="http://www.w3.org/2000/svg">
<path d="M13.3687 13.6529C13.9723 14.0002 14.1791 14.7694 13.8306 15.3709C13.4822 15.9725 12.7103 16.1786 12.1067 15.8313L0.631201 9.22835C0.0276041 8.88105 -0.179204 8.11185 0.169283 7.5103C0.517769 6.90875 1.28959 6.70264 1.89318 7.04995L13.3687 13.6529Z" fill="white"/>
<path d="M1.89326 8.95005C1.28966 9.29736 0.517846 9.09125 0.16936 8.4897C-0.179127 7.88815 0.0276812 7.11895 0.631278 6.77165L12.1068 0.16871C12.7104 -0.178595 13.4822 0.0275115 13.8307 0.629061C14.1792 1.23061 13.9724 1.99981 13.3688 2.34711L1.89326 8.95005Z" fill="white"/>
</svg>
