<svg width="36" height="36" viewBox="0 0 36 36" fill="none" xmlns="http://www.w3.org/2000/svg">
<path fill-rule="evenodd" clip-rule="evenodd" d="M15.7943 3.38788C13.4681 3.93388 10.0631 5.93826 8.4045 7.73751C7.56263 8.65101 6.33937 10.526 5.68687 11.9034C4.61213 14.1718 4.5 14.7466 4.5 17.9904C4.5 21.371 4.57875 21.7314 5.90063 24.4059C7.58738 27.8191 9.75862 29.945 13.245 31.5965C15.5104 32.6698 16.0909 32.7834 19.3125 32.7834C22.5341 32.7834 23.1146 32.6698 25.38 31.5965C28.4524 30.1411 31.3954 27.5491 31.2364 26.438C31.1512 25.8418 30.9045 25.6895 30.1875 25.7915C29.6719 25.8646 27.9 25.949 26.25 25.979C23.7694 26.024 22.9579 25.8819 21.5625 25.1578C19.4167 24.044 17.2792 22.0025 16.0005 19.8459C15.1275 18.3733 15 17.7526 15 14.9709C15 12.3163 15.1631 11.4388 15.9758 9.72088C16.866 7.83838 18.4256 5.99113 20.1765 4.74501C20.6059 4.43976 20.7626 4.02726 20.6051 3.61738C20.3265 2.89026 18.321 2.79463 15.7943 3.38788Z" fill="#03030D"/>
</svg>
