<svg width="36" height="36" viewBox="0 0 36 36" fill="none" xmlns="http://www.w3.org/2000/svg">
<path d="M16.5 6V3C16.5 2.175 17.175 1.5 18 1.5C18.825 1.5 19.5 2.175 19.5 3V6C19.5 6.825 18.825 7.5 18 7.5C17.175 7.5 16.5 6.825 16.5 6ZM27.54 10.575L29.655 8.445C30.24 7.86 30.24 6.915 29.655 6.33C29.07 5.745 28.125 5.745 27.54 6.33L25.425 8.46C24.84 9.045 24.84 9.99 25.425 10.575C26.01 11.16 26.955 11.16 27.54 10.575ZM33 16.5H30C29.175 16.5 28.5 17.175 28.5 18C28.5 18.825 29.175 19.5 30 19.5H33C33.825 19.5 34.5 18.825 34.5 18C34.5 17.175 33.825 16.5 33 16.5ZM18 28.5C17.175 28.5 16.5 29.175 16.5 30V33C16.5 33.825 17.175 34.5 18 34.5C18.825 34.5 19.5 33.825 19.5 33V30C19.5 29.175 18.825 28.5 18 28.5ZM8.46 10.575L6.33 8.46C5.745 7.875 5.745 6.915 6.33 6.345C6.915 5.775 7.875 5.76 8.445 6.345L10.56 8.46C11.145 9.045 11.145 10.005 10.56 10.575C9.975 11.145 9.03 11.16 8.46 10.575ZM25.425 25.425C24.84 26.01 24.84 26.97 25.425 27.54L27.54 29.655C28.125 30.24 29.085 30.24 29.655 29.655C30.24 29.07 30.24 28.11 29.655 27.54L27.54 25.425C26.97 24.84 26.01 24.84 25.425 25.425ZM3 19.5H6C6.825 19.5 7.5 18.825 7.5 18C7.5 17.175 6.825 16.5 6 16.5H3C2.175 16.5 1.5 17.175 1.5 18C1.5 18.825 2.175 19.5 3 19.5ZM8.46 29.67L10.575 27.555C11.16 26.97 11.16 26.01 10.575 25.44C9.99 24.87 9.03 24.855 8.46 25.44L6.345 27.555C5.76 28.14 5.76 29.1 6.345 29.67C6.915 30.255 7.875 30.255 8.46 29.67ZM18 9C13.035 9 9 13.035 9 18C9 22.965 13.035 27 18 27C22.965 27 27 22.965 27 18C27 13.035 22.965 9 18 9Z" fill="white"/>
</svg>
