<svg width="512" height="512" viewBox="0 0 512 512" fill="none" xmlns="http://www.w3.org/2000/svg">
<rect x="45.5" y="109.5" width="421" height="293" rx="39.5" fill="#161B22"/>
<rect x="45.5" y="109.5" width="421" height="293" rx="39.5" stroke="#272D34"/>
<path d="M183.807 272.42H211.42L219.347 284.949L232.898 304.125L250.54 330.716H219.091L206.562 312.562L198.381 297.477L183.807 272.42ZM262.557 257.847C260.17 272.08 255.44 284.011 248.366 293.642C241.293 303.273 232.706 310.538 222.607 315.439C212.507 320.339 201.705 322.79 190.199 322.79C177.926 322.79 167.273 320.126 158.239 314.8C149.205 309.473 142.621 301.675 138.487 291.405C134.354 281.135 133.523 268.585 135.994 253.756C138.295 239.523 142.983 227.548 150.057 217.832C157.131 208.116 165.76 200.766 175.945 195.78C186.129 190.794 197.017 188.301 208.608 188.301C220.795 188.301 231.385 190.986 240.376 196.355C249.411 201.724 255.973 209.587 260.064 219.942C264.197 230.297 265.028 242.932 262.557 257.847ZM226.761 253.756C227.955 246.256 228.04 239.949 227.017 234.835C225.994 229.679 223.842 225.801 220.561 223.202C217.28 220.56 212.869 219.239 207.33 219.239C201.023 219.239 195.44 220.773 190.582 223.841C185.724 226.909 181.697 231.32 178.501 237.072C175.305 242.825 173.068 249.75 171.79 257.847C170.426 265.432 170.298 271.739 171.406 276.767C172.557 281.795 174.815 285.567 178.182 288.081C181.591 290.595 186.023 291.852 191.477 291.852C197.699 291.852 203.196 290.361 207.969 287.378C212.784 284.395 216.768 280.07 219.922 274.402C223.118 268.734 225.398 261.852 226.761 253.756ZM261.829 321L265.153 301.312L340.834 218.727H278.959L283.817 190.091H390.692L387.369 209.778L311.687 292.364H373.562L368.704 321H261.829Z" fill="white"/>
</svg>
